<?xml version="1.0"?>
<svg xmlns="http://www.w3.org/2000/svg" fill="#fafafa" viewBox="0 0 50 50">
    <path d="M 22.5 4 C 16.748718 4 12 8.7487179 12 14.5 C 12 14.699508 12.01765 14.817265 12.03125 15.003906 C 12.022343 15.003936 12.008845 15 12 15 C 7.5700855 15 4 18.570085 4 23 C 4 27.429915 7.5700855 31 12 31 L 13 31 A 1.0001 1.0001 0 1 0 13 29 L 12 29 C 8.6299145 29 6 26.370085 6 23 C 6 19.629915 8.6299145 17 12 17 C 12.4 17 12.736185 17.033158 12.783203 17.048828 L 14.099609 17.488281 L 14.099609 16.099609 C 14.099609 15.466274 14 14.866667 14 14.5 C 14 9.8512821 17.851282 6 22.5 6 C 26.813889 6 30.286715 9.1339033 30.912109 13.154297 L 31.123047 14.507812 L 32.347656 13.894531 C 33.428399 13.35416 34.677778 13 36 13 C 40.466667 13 44 16.533333 44 21 C 44 25.466667 40.466667 29 36 29 L 35 29 A 1.0001 1.0001 0 1 0 35 31 L 36 31 C 41.533333 31 46 26.533333 46 21 C 46 15.466667 41.533333 11 36 11 C 34.731338 11 33.574169 11.305304 32.496094 11.714844 C 31.269992 7.3223045 27.356894 4 22.5 4 z M 23 20 L 16 29 L 20 29 L 14.900391 37 L 26 27 L 21 27 L 28 20 L 23 20 z M 29 27 L 22 36 L 26.099609 36 L 21 44 L 32.099609 34 L 27.099609 34 L 34.099609 27 L 29 27 z"/>
</svg>
