<?xml version="1.0"?>
<svg xmlns="http://www.w3.org/2000/svg" fill="#fafafa" viewBox="0 0 50 50">
    <path style="text-indent:0;text-align:start;line-height:normal;text-transform:none;block-progression:tb;-inkscape-font-specification:Bitstream Vera Sans" d="M 5 2 C 3.9069372 2 3 2.9069372 3 4 L 3 31 C 3 31.395104 3.1095472 31.781326 3.3125 32.09375 C 3.2184688 32.26893 3.1419181 32.451747 3.09375 32.65625 L 0.0625 45.625 A 1.0001 1.0001 0 0 0 0.03125 45.71875 L 0.03125 45.78125 A 1.0001 1.0001 0 0 0 0 45.8125 A 1.0001 1.0001 0 0 0 0 45.875 A 1.0001 1.0001 0 0 0 0 45.90625 A 1.0001 1.0001 0 0 0 0 45.96875 A 1.0001 1.0001 0 0 0 0 46 A 1.0001 1.0001 0 0 0 0 46.09375 L 0 48 C 0 49.093063 0.9069372 50 2 50 L 48 50 C 49.093063 50 50 49.093063 50 48 L 50 46.0625 A 1.0001 1.0001 0 0 0 49.96875 45.78125 L 46.90625 32.65625 C 46.858359 32.451124 46.78145 32.269113 46.6875 32.09375 C 46.890453 31.781326 47 31.395104 47 31 L 47 4 C 47 2.9069372 46.093063 2 45 2 L 5 2 z M 5 4 L 45 4 L 45 31 L 40.6875 31 L 40.3125 31 L 34.46875 31 A 1.0001 1.0001 0 0 0 34.0625 31 L 22.03125 31 A 1.0001 1.0001 0 0 0 21.8125 31 L 15.8125 31 A 1.0001 1.0001 0 0 0 15.5 31 L 9.65625 31 A 1.0001 1.0001 0 0 0 9.375 31 L 5 31 L 5 4 z M 7.8125 6 A 1.0001 1.0001 0 0 0 7 7 L 7 28 A 1.0001 1.0001 0 0 0 8 29 L 42 29 A 1.0001 1.0001 0 0 0 43 28 L 43 7 A 1.0001 1.0001 0 0 0 42 6 L 8 6 A 1.0001 1.0001 0 0 0 7.90625 6 A 1.0001 1.0001 0 0 0 7.8125 6 z M 9 8 L 41 8 L 41 27 L 9 27 L 9 8 z M 5.125 33 L 8.3125 33 L 7.03125 39.8125 A 1.0001 1.0001 0 0 0 8.46875 41 A 1.001098 1.001098 0 0 0 8.5 41 L 14.28125 41 A 1.0001 1.0001 0 0 0 15.25 41 L 34.75 41 A 1.0001 1.0001 0 0 0 35.71875 41 L 41.46875 41 A 1.0001 1.0001 0 0 0 41.5 41 A 1.0001 1.0001 0 0 0 42.96875 39.8125 L 41.6875 33 L 44.875 33 C 44.80972 33 44.9708 33.102541 44.96875 33.09375 L 47.75 45 L 30.6875 45 L 30.15625 43.625 L 30.09375 43.46875 L 30.0625 43.46875 C 29.779728 42.524921 28.930365 42 28 42 L 22 42 C 21.069635 42 20.219967 42.524717 19.9375 43.46875 L 19.90625 43.46875 L 19.84375 43.625 L 19.3125 45 L 2.25 45 L 5.03125 33.09375 C 5.0298783 33.099574 5.1902781 33 5.125 33 z M 10.3125 33 L 14.59375 33 L 14.375 35 L 10 35 A 1.0001 1.0001 0 0 0 9.9375 35 L 10.3125 33 z M 16.59375 33 L 20.875 33 L 20.78125 35 L 16.375 35 L 16.59375 33 z M 22.875 33 L 27.125 33 L 27.21875 35 L 22.78125 35 L 22.875 33 z M 29.125 33 L 33.40625 33 L 33.625 35 L 29.21875 35 L 29.125 33 z M 35.40625 33 L 39.6875 33 L 40.0625 35 A 1.0001 1.0001 0 0 0 40 35 L 35.625 35 L 35.40625 33 z M 40.40625 36.90625 L 40.8125 39 L 36.09375 39 L 35.875 37 L 40 37 A 1.0001 1.0001 0 0 0 40.40625 36.90625 z M 9.5625 36.9375 A 1.001098 1.001098 0 0 0 10 37 L 14.125 37 L 13.90625 39 L 9.1875 39 L 9.5625 36.9375 z M 16.125 37 L 20.71875 37 L 20.625 39 L 15.90625 39 L 16.125 37 z M 22.71875 37 L 27.28125 37 L 27.375 39 L 22.625 39 L 22.71875 37 z M 29.28125 37 L 33.875 37 L 34.09375 39 L 29.375 39 L 29.28125 37 z M 22 44 L 28 44 C 28.083384 44 28.16459 44.103916 28.1875 44.09375 A 1.0001 1.0001 0 0 0 28.21875 44.1875 L 28.53125 45 L 21.46875 45 L 21.78125 44.1875 A 1.0001 1.0001 0 0 0 21.8125 44.09375 C 21.835472 44.103644 21.916616 44 22 44 z M 2 47 L 19.71875 47 A 1.0001 1.0001 0 0 0 20.3125 47 L 29.75 47 A 1.0001 1.0001 0 0 0 30.34375 47 L 48 47 L 48 48 L 2 48 L 2 47 z"/>
</svg>
