<?xml version="1.0"?>
<svg xmlns="http://www.w3.org/2000/svg" fill="#fafafa" viewBox="0 0 50 50">
    <path style="text-indent:0;text-align:start;line-height:normal;text-transform:none;block-progression:tb;-inkscape-font-specification:Bitstream Vera Sans" d="M 25.5 0 C 22.474279 0 20 2.4742784 20 5.5 C 20 6.445538 20.231673 7.345846 20.65625 8.125 C 20.318302 8.0561383 19.979772 8 19.625 8 C 19.067811 8 18.572369 8.1591425 18.09375 8.40625 C 16.750929 8.0108757 15.364196 7.8012444 14 7.8125 C 9.9074107 7.8462669 5.9777388 9.7078134 3.6875 13.3125 C 2.397676 15.342114 3.0988568 17.770399 4.5 19.25 C 5.2005716 19.989801 6.0809269 20.53706 7.09375 20.71875 C 7.1750657 20.733337 7.2609903 20.741071 7.34375 20.75 C 7.0400783 21.544229 6.8589337 22.467161 7 23.5 C 7.2020874 24.979615 8.1402814 26.091082 9.21875 26.84375 C 10.297219 27.596418 11.552529 28.067457 12.6875 28.4375 C 14.781556 29.120181 18.634715 30.400763 19.125 30.5625 C 19.428672 31.197525 22.69156 38.028705 23.3125 39.21875 L 23.4375 39.40625 C 23.72286 39.949012 24.07902 40.584094 24.6875 41.125 C 25.360456 41.723222 26.492981 42.057793 27.59375 41.625 C 28.682877 41.195825 29.32842 40.208951 29.4375 39.28125 C 29.54658 38.353549 29.297616 37.468562 29.03125 36.71875 C 28.488067 35.188149 26.298983 29.36498 25.65625 27.8125 C 25.276457 26.895687 24.983066 26.266385 24.4375 25.71875 C 23.891934 25.171115 23.241674 24.817115 22.21875 24.28125 C 20.600377 23.433723 18.958734 22.801875 17.90625 22.375 C 19.141576 21.007948 22.280109 17.52145 22.5 17.28125 C 22.862147 16.886118 23.078364 16.811715 23.4375 16.90625 C 24.146434 17.093222 33.622762 19.916207 34.625 20.25 C 35.597052 20.574017 36.553127 20.709877 37.4375 20.625 C 38.321873 20.54012 39.263297 20.182002 39.71875 19.3125 C 40.071657 18.63749 40.222397 17.780792 39.875 16.96875 C 39.527603 16.156708 38.796581 15.528093 37.75 15.0625 C 36.812082 14.645464 34.029152 13.547412 31.21875 12.4375 C 29.667335 11.8248 28.204147 11.259597 27 10.78125 C 29.297965 10.121545 31 8.0030406 31 5.5 C 31 2.4742784 28.525721 0 25.5 0 z M 25.5 2 C 27.444841 2 29 3.5551588 29 5.5 C 29 7.4448412 27.444841 9 25.5 9 C 23.555159 9 22 7.4448412 22 5.5 C 22 3.5551588 23.555159 2 25.5 2 z M 14.03125 9.8125 C 14.704242 9.8091891 15.384292 9.8871392 16.0625 10 C 15.409246 10.661336 14.750713 11.430862 14.03125 12.25 C 11.845423 14.739331 10.394766 16.490803 9.0625 18.0625 C 9.006286 18.128756 8.8781941 18.293128 8.78125 18.40625 C 8.3328032 18.749619 7.9041778 18.833717 7.4375 18.75 C 6.9377293 18.660346 6.3888034 18.351574 5.9375 17.875 C 5.0348932 16.921851 4.652824 15.511386 5.375 14.375 C 7.2742612 11.385687 10.556036 9.8295971 14.03125 9.8125 z M 19.625 10 C 20.606885 10 22.144297 10.861044 24.03125 11.71875 C 24.927365 12.126024 27.657902 13.202412 30.46875 14.3125 C 33.279598 15.422588 36.168418 16.564286 36.9375 16.90625 C 37.713919 17.251657 37.958647 17.580292 38.03125 17.75 C 38.10385 17.919708 38.11159 18.07326 37.9375 18.40625 C 37.91995 18.43975 37.756627 18.576377 37.25 18.625 C 36.743373 18.67362 36.002948 18.59473 35.25 18.34375 C 33.922238 17.901543 25.048566 15.261778 23.9375 14.96875 C 22.822636 14.675285 21.723103 15.182632 21.03125 15.9375 C 20.66782 16.334495 15.5 22.0625 15.5 22.0625 L 14.53125 23.125 L 15.875 23.65625 C 15.875 23.65625 19.410984 25.066694 21.3125 26.0625 C 22.322576 26.591635 22.785566 26.878385 23.03125 27.125 C 23.276934 27.371615 23.448293 27.714563 23.8125 28.59375 C 24.387767 29.98327 26.645433 35.966851 27.15625 37.40625 C 27.370884 38.010438 27.48442 38.632201 27.4375 39.03125 C 27.39058 39.430299 27.36687 39.587425 26.875 39.78125 C 26.393769 39.970457 26.297294 39.889278 26 39.625 C 25.702706 39.360722 25.371664 38.813878 25.09375 38.28125 L 25.0625 38.1875 C 24.502808 37.102291 20.75 29.3125 20.75 29.3125 L 20.5625 28.90625 L 20.15625 28.78125 C 20.15625 28.78125 15.547173 27.259773 13.3125 26.53125 C 12.254471 26.186293 11.169281 25.741832 10.375 25.1875 C 9.5807186 24.633168 9.1119126 24.038135 9 23.21875 C 8.807148 21.806754 9.546478 20.637677 10.15625 19.875 A 1.0001 1.0001 0 0 0 10.21875 19.8125 A 1.0001 1.0001 0 0 0 10.375 19.65625 A 1.0001 1.0001 0 0 0 10.46875 19.53125 A 1.0001 1.0001 0 0 0 10.46875 19.5 C 10.503469 19.459253 10.562588 19.411729 10.59375 19.375 C 11.943484 17.782697 13.367077 16.027169 15.53125 13.5625 C 16.491966 12.468684 17.345416 11.51286 18.0625 10.875 C 18.779584 10.23714 19.326379 10 19.625 10 z M 40 22 C 34.488997 22 30 26.488997 30 32 C 30 37.511003 34.488997 42 40 42 C 45.511003 42 50 37.511003 50 32 C 50 26.488997 45.511003 22 40 22 z M 40 24 C 44.430123 24 48 27.569877 48 32 C 48 36.430123 44.430123 40 40 40 C 35.569877 40 32 36.430123 32 32 C 32 27.569877 35.569877 24 40 24 z M 10 30 C 4.4889972 30 0 34.488997 0 40 C 0 45.511003 4.4889972 50 10 50 C 15.511003 50 20 45.511003 20 40 C 20 34.488997 15.511003 30 10 30 z M 10 32 C 14.430123 32 18 35.569877 18 40 C 18 44.430123 14.430123 48 10 48 C 5.5698774 48 2 44.430123 2 40 C 2 35.569877 5.5698774 32 10 32 z" overflow="visible" enable-background="accumulate" font-family="Bitstream Vera Sans"/>
</svg>
