<?xml version="1.0"?>
<svg xmlns="http://www.w3.org/2000/svg" viewBox="0 0 50 50">
    <path style="line-height:normal;text-indent:0;text-align:start;text-decoration-line:none;text-decoration-style:solid;text-decoration-color:#000;text-transform:none;block-progression:tb;isolation:auto;mix-blend-mode:normal" d="M 26.048828 6.9199219 L 18.558594 19.859375 A 1.0001261 1.0001261 0 0 0 18.507812 19.945312 L 14.787109 26.371094 L 11.75 23.335938 L 1.8691406 42 L 4.1328125 42 L 12.25 26.664062 L 15.212891 29.626953 L 19.658203 21.947266 L 22.421875 24.316406 L 25.921875 21.316406 L 29.421875 24.316406 L 31.771484 22.302734 L 39.892578 37.964844 L 41.921875 34.919922 L 45.855469 42 L 48.144531 42 L 42.078125 31.080078 L 40.107422 34.035156 L 33.087891 20.498047 A 1.0001 1.0001 0 0 0 33.087891 20.494141 A 1.0001 1.0001 0 0 0 32.841797 20.021484 L 26.048828 6.9199219 z M 25.951172 11.078125 L 30.826172 20.478516 L 29.421875 21.683594 L 25.921875 18.683594 L 22.421875 21.683594 L 20.677734 20.1875 L 25.951172 11.078125 z" font-weight="400" font-family="sans-serif" white-space="normal" overflow="visible"/>
</svg>
