<?xml version="1.0"?>
<svg xmlns="http://www.w3.org/2000/svg" width="50" height="50" viewBox="0 0 50 50">
    <path style="text-indent:0;text-align:start;line-height:normal;text-transform:none;block-progression:tb;-inkscape-font-specification:Bitstream Vera Sans" d="M 24.90625 3.96875 A 1.0001 1.0001 0 0 0 24.78125 4 A 1.0001 1.0001 0 0 0 24 5 L 24 11 A 1.0001 1.0001 0 1 0 26 11 L 26 5 A 1.0001 1.0001 0 0 0 24.90625 3.96875 z M 10.65625 9.84375 A 1.0001 1.0001 0 0 0 10.15625 11.5625 L 14.40625 15.8125 A 1.0001 1.0001 0 1 0 15.8125 14.40625 L 11.5625 10.15625 A 1.0001 1.0001 0 0 0 10.75 9.84375 A 1.0001 1.0001 0 0 0 10.65625 9.84375 z M 39.03125 9.84375 A 1.0001 1.0001 0 0 0 38.4375 10.15625 L 34.1875 14.40625 A 1.0001 1.0001 0 1 0 35.59375 15.8125 L 39.84375 11.5625 A 1.0001 1.0001 0 0 0 39.03125 9.84375 z M 24.90625 15 A 1.0001 1.0001 0 0 0 24.8125 15.03125 A 1.0001 1.0001 0 0 0 24.625 15.0625 A 1.0001 1.0001 0 0 0 24.59375 15.09375 C 19.288462 15.322127 15 19.640564 15 25 C 15 30.505414 19.495611 35 25 35 C 30.50528 35 35 30.50528 35 25 C 35 19.662023 30.745362 15.354268 25.46875 15.09375 C 25.435 15.09205 25.40883 15.06383 25.375 15.0625 A 1.0001 1.0001 0 0 0 25.0625 15 C 25.0412 14.999865 25.02133 15 25 15 A 1.0001 1.0001 0 0 0 24.90625 15 z M 24.9375 17 A 1.0001 1.0001 0 0 0 25 17 C 25.03188 17 25.06196 16.999629 25.09375 17 C 29.470271 17.051126 33 20.612261 33 25 C 33 29.42072 29.42072 33 25 33 C 20.580389 33 17 29.420586 17 25 C 17 20.601771 20.547362 17.0342 24.9375 17 z M 4.71875 24 A 1.0043849 1.0043849 0 0 0 5 26 L 11 26 A 1.0001 1.0001 0 1 0 11 24 L 5 24 A 1.0001 1.0001 0 0 0 4.90625 24 A 1.001098 1.001098 0 0 0 4.8125 24 A 1.0043849 1.0043849 0 0 0 4.71875 24 z M 38.71875 24 A 1.0043849 1.0043849 0 0 0 39 26 L 45 26 A 1.0001 1.0001 0 1 0 45 24 L 39 24 A 1.0001 1.0001 0 0 0 38.90625 24 A 1.001098 1.001098 0 0 0 38.8125 24 A 1.0043849 1.0043849 0 0 0 38.71875 24 z M 15 33.875 A 1.0001 1.0001 0 0 0 14.40625 34.1875 L 10.15625 38.4375 A 1.0001 1.0001 0 1 0 11.5625 39.84375 L 15.8125 35.59375 A 1.0001 1.0001 0 0 0 15.09375 33.875 A 1.0001 1.0001 0 0 0 15 33.875 z M 34.6875 33.875 A 1.0001 1.0001 0 0 0 34.1875 35.59375 L 38.4375 39.84375 A 1.0001 1.0001 0 1 0 39.84375 38.4375 L 35.59375 34.1875 A 1.0001 1.0001 0 0 0 34.875 33.875 A 1.0001 1.0001 0 0 0 34.78125 33.875 A 1.0001 1.0001 0 0 0 34.6875 33.875 z M 24.90625 37.96875 A 1.0001 1.0001 0 0 0 24.78125 38 A 1.0001 1.0001 0 0 0 24 39 L 24 45 A 1.0001 1.0001 0 1 0 26 45 L 26 39 A 1.0001 1.0001 0 0 0 24.90625 37.96875 z"/>
</svg>
